_________________________  Visit us at _________________________
  
http://p2pdl.com  ____________________________  http://p2pdl.com


Dark Skies 2013 BRRip 480p x264 AAC - VYTO


Genre: Horror | Sci-Fi | Thriller
Plot: As the Barret family's peaceful suburban life is rocked by an escalating series of disturbing
events, they come to learn that a terrifying and deadly force is after them.  
Director: Scott Stewart
Stars: Keri Russell, Josh Hamilton, Dakota Goyo.
Rated: PG-13 for violence, terror throughout, sexual material, drug content and language - all
involving teens.


Info: 
http://www.imdb.com/title/tt2387433/

Trailer:


Format                         : MPEG-4
File size                      : 302 MiB
Duration                       : 1h 37mn
Overall bit rate mode          : Variable
Overall bit rate               : 435 Kbps
Source                         : 720p.BluRay.x264-SPARKS(Thanks)

Video
Format                         : AVC
Duration                       : 1h 37mn
Bit rate                       : 391 Kbps
Width                          : 720 pixels
Height                         : 304 pixels
Display aspect ratio           : 2.35:1
Frame rate mode                : Constant
Frame rate                     : 23.976 fps
Stream size                    : 271 MiB (90%)
Writing library                : x264 core 130 r2273

Audio
Format                         : AAC
Duration                       : 1h 37mn
Bit rate mode                  : Variable
Bit rate                       : 40.0 Kbps
Channel(s)                     : 2 channels
Channel positions              : Front: L R
Sampling rate                  : 44.1 KHz
Stream size                    : 27.8 MiB (9%)
Language                       : English

Subtitle                       : Yes (English)
 
http://www.ultraimg.com/images/0Ci6E.png 
http://www.ultraimg.com/images/IGkYK.png 
http://www.ultraimg.com/images/anPsS.png 
http://www.ultraimg.com/images/VQ4ay.png 
http://www.ultraimg.com/images/dBi7S.png 
http://www.ultraimg.com/images/uI1oe.png


----------------------------------------------------------------------------------------------------


Encoded using revolutionary 10bit encoding, which enables us to provide you more crispier 
and sharper images at small sizes, just make sure you follow our instructions without a fault.
Recommend to you to use latest version of VLC player. Install K-Lite Codec Pack or shark007 codecs
in case of any kind of problem in playback (For non-VLC Media Player users). Alternatively, install
Core AVC codecs, the fastest decoder that there is coupled with Community Center Codec Pack and play
on Windows Media Player Classic. Check sample to be sure.
Enjoy!

Encoder Notes:Looking For Early Access To Anything You Can Provide DVDScr, R5, DVDR, BluRay, Direct
Audio, Music Releases and Seedboxes. We require dedicated servers, so as to do more 
and fast releases of movies.
If You Got anything to offer please contact us at "prg@hush.com".

Face book Fan Page:   
http://www.fb.me/p2pdl